  
http://dragon-torrents.com/ New releases first!


Format : AVI
Format/Info : Audio Video Interleave
File size : 1.56 GiB
Duration : 1h 51mn
Overall bit rate : 2 010 Kbps
Writing application : VirtualDubMod 1.5.10.2 (build 2540/release)
Writing library : VirtualDub build 32839/release

Video
ID : 0
Format : MPEG-4 Visual
Format profile : Advanced Simple@L5
Format settings, BVOP : Yes
Format settings, QPel : No
Format settings, GMC : No warppoints
Format settings, Matrix : Custom
Codec ID : XVID
Codec ID/Hint : XviD
Duration : 1h 51mn
Bit rate : 1 744 Kbps
Width : 720 pixels
Height : 306 pixels
Display aspect ratio : 2.35:1
Frame rate : 25.000 fps
Color space : YUV
Chroma subsampling : 4:2:0
Bit depth : 8 bits
Scan type : Progressive
Bits/(Pixel*Frame) : 0.317
Stream size : 1.35 GiB (87%)
Writing library : XviD 1.2.1 (UTC 2008-12-04)

Audio
ID : 1
Format : MPEG Audio
Format version : Version 1
Format profile : Layer 3
Codec ID : 55
Codec ID/Hint : MP3
Duration : 1h 51mn
Bit rate mode : Constant
Bit rate : 256 Kbps
Channel(s) : 2 channels
Sampling rate : 44.1 KHz
Stream size : 204 MiB (13%)
Alignment : Split accross interleaves
Interleave, duration : 40 ms (1.00 video frame)
Interleave, preload duration : 500 ms


  
http://www.imdb.com/title/tt0990407/




Users: 6.8/10 (2,320 votes) 70 reviews | Critics: 35 reviews Metascore: 38/100 (based on 36 reviews from Metacritic.com)

Following the death of his father, Britt Reid, heir to his father\\\\\\\\\\\\\\\'s large company, teams up with his late dad\\\\\\\\\\\\\\\'s assistant Kato to become a masked crime fighting team.
Director:
Michel Gondry
Writers:
Seth Rogen, Evan Goldberg, and 1 more credit ┬╗
Stars:
Seth Rogen, Jay Chou and Christoph Waltz


Video source - Serenity ( Thanks )
Audio source - TOXiC- iNK ( Thanks )

File size is larger than i wanted but left it as it was rather than do again as was pushed for time ..Filters wise i lowered saturation ,increased contrast just a little and not a great deal more.Video was already tops from Serenity .Left the audio untouched ....Seed and enjoy !



Greetz to Imagine ,Flawl3ss ,Santi ,Vision ,Kingdom,BDK,DiGiTALiNK,LEGION,Classified,THC,WBZ,Rx ,Feel Free and to all who share


Screens:

  
http://leetleech.org/images/24658347765974112260.jpg
  
http://leetleech.org/images/72768690578177038421.jpg
  
http://leetleech.org/images/48747644935568383712.jpg	